<?xml version="1.0" standalone="no"?><!DOCTYPE svg PUBLIC "-//W3C//DTD SVG 1.1//EN" "http://www.w3.org/Graphics/SVG/1.1/DTD/svg11.dtd"><svg t="1700391357561" class="icon" viewBox="0 0 1024 1024" version="1.1" xmlns="http://www.w3.org/2000/svg" p-id="1534" xmlns:xlink="http://www.w3.org/1999/xlink" width="200" height="200"><path d="M182.857136 1023.999634a109.019331 109.019331 0 0 1-77.577073-32.137114A109.019331 109.019331 0 0 1 73.142949 914.285447V109.714736a109.010188 109.010188 0 0 1 32.127971-77.622788A109.019331 109.019331 0 0 1 182.857136 0.000549h402.285355v255.999771a109.842188 109.842188 0 0 0 109.714188 109.714188h255.999772v548.570939a109.019331 109.019331 0 0 1-32.127972 77.577073A109.019331 109.019331 0 0 1 841.142263 1023.999634z m517.338967-191.999828h51.803382V720.767905h92.946203v-51.812525H751.999485v-59.428519h115.812468v-51.803382H700.18696zM429.714059 831.999806h88.758778a282.642033 282.642033 0 0 0 32.76797-1.517713C612.991609 823.423813 654.472715 768.914148 654.472715 694.857071s-41.490249-128.566742-103.231908-135.615879A282.76089 282.76089 0 0 0 518.472837 557.714336H429.714059z m-247.615779 0h51.803382V739.053603h63.999943a175.944986 175.944986 0 0 0 22.857122-1.526856c45.714245-7.140565 70.85708-38.802251 70.85708-89.15192s-25.16112-82.05707-70.85708-89.142778a172.616989 172.616989 0 0 0-22.857122-1.526856H182.09828zM219.428532 329.143112a36.571396 36.571396 0 0 0 36.571396 36.571396h146.285584a36.571396 36.571396 0 0 0 36.571396-36.571396 36.571396 36.571396 0 0 0-36.571396-36.571396H255.999928a36.571396 36.571396 0 0 0-36.571396 36.571396z m0-146.285584a36.571396 36.571396 0 0 0 36.571396 36.571396h146.285584a36.571396 36.571396 0 0 0 36.571396-36.571396 36.571396 36.571396 0 0 0-36.571396-36.571396H255.999928a36.571396 36.571396 0 0 0-36.571396 36.571396z m262.856908 600.383464V606.482293h36.187397a155.474147 155.474147 0 0 1 29.723402 1.901712 58.751948 58.751948 0 0 1 39.140536 30.948544A117.16561 117.16561 0 0 1 599.624764 694.857071a117.129038 117.129038 0 0 1-12.287989 55.515379 58.751948 58.751948 0 0 1-39.140536 30.96683 156.187289 156.187289 0 0 1-29.723402 1.901712zM233.901662 690.669646v-84.571353h61.714231a68.955367 68.955367 0 0 1 17.526841 1.910856c23.725693 6.463994 26.285691 30.39083 26.285691 40.374821s-2.559998 33.910827-26.285691 40.383964a69.101653 69.101653 0 0 1-17.526841 1.901712z m426.696762-431.835043l0.585142-215.862664a36.571396 36.571396 0 0 1 62.107374-30.665116L938.568462 227.56606a36.571396 36.571396 0 0 1-30.655973 62.116516l-215.862664 0.585142a36.571396 36.571396 0 0 1-31.451401-31.433115z" fill="#D92B2B" p-id="1535"></path></svg>